<svg xmlns="http://www.w3.org/2000/svg" xmlns:xlink="http://www.w3.org/1999/xlink" viewBox="0 0 217.98 351.73"><defs><style>.cls-1{fill:url(#linear-gradient);}</style><linearGradient id="linear-gradient" x1="-1.56" y1="-32.14" x2="269.31" y2="479.27" gradientUnits="userSpaceOnUse"><stop offset="0.23" stop-color="#2b3990"/><stop offset="0.56" stop-color="#2970b8"/><stop offset="0.85" stop-color="#289ad6"/><stop offset="1" stop-color="#27aae1"/></linearGradient></defs><g id="Layer_2" data-name="Layer 2"><g id="Layer_1-2" data-name="Layer 1"><path class="cls-1" d="M109.1,346.47c-.26,0-.52,1.62-.78,1.62s-.56,2.5-.82,2.49-.54.49-.8.48-.37-6-.63-6-.73,6.25-1,6.24-.39-3.48-.65-3.49-.62,2.07-.88,2-.3-4-.56-4-.89,5.85-1.15,5.83-.3-3.43-.56-3.45-.36-2-.62-2-.62,1.19-.88,1.16-.45-.7-.71-.72-.57.55-.83.53-.87,3.18-1.13,3.15,0-4.42-.28-4.45-.47-.33-.73-.36-.92,3.07-1.18,3-.42-.8-.68-.84-.06-3.13-.32-3.17-1.33,5.26-1.59,5.22,0-3.51-.23-3.55-.12-2.33-.38-2.37-.86,2-1.12,1.92-.47-.28-.72-.33-1.38,4.37-1.63,4.32-.36-1-.61-1.06.68-5.87.43-5.93-1.48,4.43-1.73,4.37.08-2.78-.17-2.83-.6.32-.85.26-.46-.29-.71-.35-1,1.67-1.2,1.61-1,1.83-1.27,1.77,0-2.19-.23-2.26.33-3.2.08-3.27-.64.42-.89.35l-.74-.21-.73-.22c-.25-.08-.22-1-.47-1.09s-.46-.18-.71-.26-1.41,2.75-1.66,2.67.09-1.92-.16-2-1.85,3.9-2.1,3.82,1.34-5.51,1.1-5.6-.62.24-.86.16-1.79,3.44-2,3.35,1.07-4.38.82-4.47-1.23,1.84-1.47,1.75.32-2.23.07-2.33-2.24,4.3-2.48,4.2.48-2.59.24-2.69.1-1.57-.14-1.67-1.81,3-2,2.87-.87.68-1.11.58.41-2.23.17-2.34-.18-.85-.42-1-2.16,3.47-2.39,3.36-.68.16-.91.05,2.28-6,2-6.14-2.23,3.45-2.47,3.33-1.08,1-1.31.88l-.71-.38c-.23-.12,2.13-5.29,1.89-5.41s-1.47,1.74-1.7,1.62-.65.13-.88,0-1.91,2.45-2.14,2.32,1-2.93.78-3.05-1.23,1.13-1.45,1,0-1-.27-1.12.16-1.31-.06-1.44-1.76,2-2,1.83,1.46-3.44,1.24-3.58-.49-.17-.71-.31-3.3,4.35-3.52,4.21,1.82-3.88,1.6-4,.38-1.54.16-1.68-.32-.44-.53-.58-1.1.74-1.31.6-.27-.51-.49-.66-.51-.16-.72-.3.4-1.47.19-1.62-2.78,3.07-3,2.92.17-1.14,0-1.29,1.31-2.68,1.1-2.83-.78.21-1,.06-1.09.6-1.3.44-.85.28-1.06.12.44-1.41.23-1.57-2.86,2.81-3.06,2.65,2-3.32,1.77-3.48-3.48,3.47-3.68,3.3,1.27-2.39,1.07-2.56-.66,0-.85-.2.27-1.14.07-1.31-2.64,2.27-2.84,2.1,3.37-4.67,3.18-4.84,0-.82-.15-1-1.17.56-1.36.38-1.48.87-1.68.69-3,2.48-3.19,2.3,2.63-3.59,2.44-3.77-.5-.22-.68-.4-1.71,1-1.9.84,1.09-1.87.91-2.05-1.65.92-1.83.73-.64-.11-.83-.29-.82.06-1-.13-.24-.51-.42-.7-1.73.9-1.91.71,2.58-3.14,2.4-3.33-2.89,1.94-3.07,1.75,4.24-4.55,4.07-4.75-2.63,1.68-2.81,1.48-1.59.71-1.76.51-1.25.38-1.42.18,1.95-2.37,1.79-2.57-.37-.38-.53-.58,1.46-1.88,1.29-2.08-4.88,3.33-5.05,3.13,3.61-3.59,3.45-3.79-.28-.43-.44-.64-.71-.09-.87-.29-2.05.92-2.2.71-2.41,1.15-2.57.94,4.94-4.34,4.78-4.55-2.64,1.32-2.8,1.11-.57-.22-.73-.44-1.12.16-1.27-.05,0-.65-.14-.87-1.76.57-1.91.36,3.31-2.89,3.17-3.11-4.16,2.16-4.31,1.94,2.11-2,2-2.24-1.46.32-1.6.1.71-1.08.57-1.3-3.07,1.3-3.21,1.08-.05-.61-.19-.83,4.07-3.09,3.93-3.31-.15-.5-.28-.73-3.25,1.31-3.38,1.08-1.7.37-1.83.14,1-1.16.82-1.39-1.11,0-1.24-.22-.5-.34-.62-.57,5.33-3.46,5.21-3.69-4.4,1.74-4.52,1.51,3.72-2.51,3.6-2.74-3.84,1.39-4,1.15,1.31-1.24,1.2-1.47-.17-.49-.29-.73-.36-.39-.47-.63-2.48.6-2.59.36-1.2,0-1.31-.28,5-2.82,4.85-3.06-2,.34-2.11.1,2-1.43,1.91-1.67-.49-.33-.59-.57-5.44,1.72-5.54,1.48-.64-.32-.74-.57,1.86-1.32,1.77-1.57-1.21-.09-1.31-.33,4.16-2.16,4.06-2.4S7.11,281.07,7,280.83s2.86-1.62,2.77-1.87S13,277.25,13,277s-2.37.29-2.45.05S9.06,277,9,276.76s.53-.73.45-1,.89-.82.81-1.07-3.69.62-3.77.38,4.54-1.95,4.46-2.2S8,273.23,8,273s-.64-.35-.72-.6-.78-.33-.85-.58-.28-.47-.35-.72,3.49-1.48,3.42-1.73-2.22,0-2.28-.2-1.63-.13-1.69-.38-1.52-.18-1.58-.43,1.79-1,1.73-1.23,1.6-.9,1.54-1.16,1.46-.84,1.4-1.09-5.49.64-5.55.38,4.74-1.51,4.69-1.76-1.21-.28-1.26-.54S2,263.25,2,263s1.66-.85,1.62-1.11,1.23-.75,1.19-1,3.18-1.05,3.14-1.31-3.85.1-3.89-.16,3.09-1,3.06-1.25-5.82.32-5.86.06,4.34-1.13,4.31-1.39-4,0-4.08-.27,5.85-1.24,5.81-1.5-4.44,0-4.47-.26.56-.6.53-.86,1.55-.67,1.53-.93-2.25-.32-2.28-.58,3-.78,3-1-3.52-.25-3.54-.51-.92-.47-.94-.73,5.74-.88,5.72-1.14-1.39-.43-1.4-.69,1.07-.56,1.06-.82-3.68-.37-3.69-.63-.66-.5-.67-.77S5,245.5,5,245.24s-1.91-.49-1.91-.75,2.39-.54,2.39-.8-1.38-.51-1.38-.77,2.69-.39,2.69-.78-2-.39-2-.78-.59-.39-.59-.78.15-.39.15-.78.55-.39.55-.78-.26-.39-.26-.78S2,237.85,2,237.46s1.62-.39,1.62-.78-3.29-.39-3.29-.78S7,235.51,7,235.11s-3.72-.39-3.72-.78-3-.39-3-.78,1.39-.39,1.39-.78,4.53-.39,4.53-.79-2.11-.39-2.11-.78.53-.39.53-.78-4.2-.4-4.2-.79,3.08-.39,3.08-.78-2.1-.39-2.1-.78-.46-.39-.46-.79,4.35-.39,4.35-.78-2.35-.39-2.35-.78.71-.39.71-.78,2.93-.39,2.93-.78-5-.39-5-.78,3.66-.39,3.66-.78-4.57-.39-4.57-.78,5.89-.39,5.89-.78S0,220.64,0,220.25s5.89-.39,5.89-.78-1-.39-1-.78,1.45-.39,1.45-.78-1.42-.39-1.42-.78-3.4-.39-3.4-.78,4.8-.39,4.8-.78S3,215.18,3,214.79.92,214.4.92,214s2.35-.39,2.35-.78.28-.39.28-.78-1.84-.39-1.84-.78,2.68-.39,2.68-.78-.23-.39-.23-.78-.15-.39-.15-.78-3-.39-3-.78,4.38-.39,4.38-.78S.14,207.38.14,207s4.48-.39,4.48-.78-3.4-.39-3.4-.78,3-.39,3-.78-.47-.4-.47-.79.16-.39.16-.78-1.44-.39-1.44-.78,2.42-.39,2.42-.78,2.16-.4,2.16-.79S7,200.34,7,200s-2.57-.4-2.57-.79-.92-.39-.92-.78,1.31-.39,1.31-.79-3.08-.39-3.08-.78,0-.39,0-.78,5.14-.39,5.14-.79-.73-.39-.73-.78-1-.39-1-.78-2.48-.39-2.48-.78,1.85-.39,1.85-.79-2.71-.39-2.71-.78,4.83-.39,4.83-.78S.1,190.16.1,189.77,1,189.38,1,189s1.19-.39,1.19-.79-1.63-.39-1.63-.78.11-.39.11-.78,2-.39,2-.78,2.52-.39,2.52-.78-4.93-.39-4.93-.79,5.7-.39,5.7-.78-4.57-.39-4.57-.78.44-.39.44-.78,0-.4,0-.79-.47-.39-.47-.78-.7-.39-.7-.79,1-.39,1-.78,4.86-.39,4.86-.79-2.38-.39-2.38-.78-.29-.39-.29-.78,1.38-.4,1.38-.79.09-.39.09-.78-1.56-.39-1.56-.79-.55-.39-.55-.78,3.52-.39,3.52-.78-1.56-.39-1.56-.79S4.1,171.36,4.1,171s0-.39,0-.78.44-.39.44-.78-3.85-.4-3.85-.79-.14-.39-.14-.78.36-.39.36-.79.75-.39.75-.78,5.44-.39,5.44-.78S1,165.09,1,164.7s3.24-.39,3.24-.78-1.14-.4-1.14-.79-2.8-.39-2.8-.78S3,162,3,161.56s3.49-.39,3.49-.78S6,160.38,6,160s-3.79-.39-3.79-.78,5-.39,5-.78-7.09-.4-7.09-.79,4.63-.39,4.63-.78,1.9-.39,1.9-.79-6-.39-6-.78,0-.39,0-.78,5.06-.4,5.06-.79-1.42-.39-1.42-.79.39-.39.39-.78-4.1-.39-4.1-.78,2-.39,2-.79,1.89-.39,1.89-.78S6,149.41,6,149s-3.65-.39-3.65-.78-1-.39-1-.78,2.09-.39,2.09-.78S3,146.29,3,145.9s2.21-.39,2.21-.78-3.56-.4-3.56-.79,3-.39,3-.78.75-.39.75-.78.91-.39.91-.79-5.81-.39-5.81-.78,2.66-.39,2.66-.79,2-.39,2-.78-3.88-.4-3.88-.79-1.15-.39-1.15-.78,6.87-.4,6.87-.79-5.11-.39-5.11-.78S.7,136.1.7,135.7s5.36-.39,5.36-.78.43-.39.43-.78-.89-.4-.89-.79-1.9-.39-1.9-.79-1.57-.39-1.57-.78,3.5-.4,3.5-.79,1.42-.39,1.42-.79-4-.39-4-.78S6,129,6,128.63s-6-.39-6-.78,4.23-.4,4.23-.79,2.39-.4,2.39-.79-2.94-.39-2.94-.79S7,125.09,7,124.7s-3.53-.4-3.53-.79,1.76-.39,1.76-.79-.87-.39-.87-.79.09-.39.09-.78-.64-.39-.64-.79-2.61-.39-2.61-.79,4-.39,4-.78.59-.39.59-.79.6-.39.6-.78.38-.4.38-.79-5.53-.4-5.53-.79,4.24-.4,4.24-.79,1.13-.4,1.13-.79-3.19-.4-3.19-.79-1.65-.39-1.65-.79-1.22-.39-1.22-.79S3,111.7,3,111.3s-1.38-.4-1.38-.79-.81-.4-.81-.8S3,109.32,3,108.92s.59-.52.59-.78S6,107.65,6,107.39s-4.53-.61-4.53-.87S4,106.06,4,105.8s1.2-.48,1.21-.74-2.54-.62-2.53-.88,1.1-.47,1.11-.73S5,103,5,102.74s.23-.5.24-.76-.87-.58-.85-.84,2.34-.33,2.36-.59-.47-.54-.45-.8-5.22-1-5.19-1.27,3.37-.2,3.39-.46,1.59-.35,1.62-.6-3.55-.94-3.52-1.2,4.07,0,4.1-.28S3.93,95.06,4,94.8,1.77,94,1.81,93.7s3.38,0,3.42-.3.78-.4.82-.66.24-.48.28-.74-2.1-.88-2.06-1.14.9-.37,1-.63S2.65,89.22,2.7,89s5.42.51,5.47.25-4.34-1.39-4.29-1.64-.65-.69-.59-.94,1.85-.15,1.91-.41,3.62.28,3.68,0-2.56-1.11-2.5-1.37.58-.4.64-.65S8.24,84,8.3,83.75s1.68-.09,1.75-.35-3.91-1.55-3.84-1.8,1.22-.21,1.29-.47,2.26.1,2.33-.15-2.71-1.31-2.64-1.56-.05-.56,0-.81S6,77.69,6.1,77.44s1.92,0,2-.21-.61-.75-.53-1-1.51-1.06-1.43-1.31,4.61,1,4.7.75-4.77-2.2-4.68-2.44.58-.38.67-.62,4.82,1.18,4.91.93-.46-.71-.37-1-1.12-1-1-1.22,3.12.65,3.22.41-3.5-1.93-3.4-2.17,1.42,0,1.52-.24-3.41-2-3.31-2.22,5.84,1.89,6,1.65S9,66,9.12,65.73s2,.29,2.11,0,4.28,1.35,4.39,1.11-1.77-1.36-1.66-1.6-3.05-2-2.94-2.24,3,.82,3.08.59-.81-1-.69-1.21-2.12-1.64-2-1.88,2.27.54,2.39.31-.89-1-.77-1.29.77-.2.89-.44,3.21,1.11,3.33.88.75-.17.88-.4-.72-1-.59-1.2.17-.49.3-.72-.3-.77-.17-1,.45-.34.58-.57-1.49-1.48-1.35-1.7,2,.6,2.17.38-.76-1.08-.63-1.3,2.24.78,2.38.56,1.57.39,1.71.17-3.13-2.61-3-2.83S23.25,53.22,23.4,53s-4.33-3.48-4.19-3.7.53-.29.68-.5,4.37,2.35,4.52,2.13.33-.38.48-.59-2.26-2.21-2.11-2.42,3.16,1.62,3.31,1.41S24,47.18,24.14,47s.19-.5.35-.71,2.49,1.22,2.64,1,.36-.36.51-.56-4.14-3.86-4-4.07,4.08,2.53,4.24,2.33,1.1.23,1.26,0-3.48-3.48-3.32-3.68.79,0,1-.24,3.44,2.19,3.6,2-2.54-2.82-2.37-3S26.66,38.17,26.83,38s.11-.63.28-.82,4.33,3.12,4.51,2.92-1.74-2.25-1.56-2.44.26-.48.43-.67-1.19-1.83-1-2,4.91,3.88,5.09,3.69S32.86,36.31,33,36.13s1.25.49,1.43.3,1.64.9,1.82.71-.72-1.42-.54-1.61S33.92,33,34.1,32.76s-.47-1.25-.29-1.43,4.27,3.68,4.46,3.5-3.8-4.76-3.61-4.94,4.89,4.47,5.08,4.29-3-4-2.78-4.16,2.14,1.58,2.33,1.41-.55-1.39-.35-1.56-.26-1.1-.07-1.27,1.57,1,1.77.84.61-.08.81-.25-2-3.2-1.81-3.37,1.19.6,1.4.43,0-.88.17-1,3.16,3.09,3.37,2.93-1.66-2.92-1.45-3.08,2.2,2,2.41,1.82.9.35,1.11.19.66,0,.87-.12-2.8-4.61-2.6-4.77,3.55,3.94,3.76,3.79-2.19-3.9-2-4,.46-.26.68-.41,1.83,1.69,2,1.55-2-3.81-1.77-3.95,3.45,4.12,3.66,4,.72.17.94,0-2.2-4.29-2-4.43.85.34,1.07.2.66.05.88-.09,2,2.2,2.22,2.06-1.57-3.53-1.35-3.67,1,.71,1.28.58,1.7,1.84,1.93,1.71S54.75,15.79,55,15.66,57.6,19.17,57.83,19s.18-.7.41-.83-.34-1.67-.12-1.8.9.56,1.13.44.26-.61.49-.74,1.43,1.61,1.66,1.49.32-.47.55-.59-1.13-3.35-.89-3.47.61,0,.84-.07,2.08,3.07,2.32,3S62,10.7,62.27,10.59s.87.57,1.11.46,0-1.19.28-1.3S65.73,13,66,12.89s.36-.47.59-.57.44-.3.68-.41,1.35,1.85,1.59,1.75,0-1.33.24-1.43,1.21,1.63,1.46,1.53-.63-2.91-.39-3,1,1.12,1.24,1,.45-.27.69-.36.33-.58.58-.67.09-1.25.34-1.34.06-1.39.3-1.48.65.23.89.15.22-1,.47-1.08.82.77,1.07.68.94,1.21,1.19,1.13.29-.8.54-.88,1,1.32,1.2,1.25-.09-2.09.16-2.17,1.15,2.1,1.4,2-.32-3-.07-3.12.68.47.93.4S82.31,9,82.56,8.89s.78,1,1,.9.36-.61.61-.67.07-1.86.32-1.92.17-1.54.42-1.6.49-.22.74-.28S87,8.69,87.21,8.64s-.12-3,.13-3.09.8,1.31,1,1.26.15-1.9.41-1.95.35-1,.61-1S90.73,8.23,91,8.19s-.49-5.78-.23-5.82.48-.42.74-.46S92.75,6.42,93,6.38s-.2-4.81,0-4.85.73,1.24,1,1.2.39-1.07.65-1.1.53-.14.79-.18.54,0,.8,0,1.23,6.19,1.49,6.16.09-4,.35-4,.61.88.87.85.37-1.61.63-1.63.5-.38.76-.41.5-.43.76-.45.88,5.15,1.14,5.14.3-3.34.56-3.35.51-.11.78-.13.63,2.53.89,2.52.32-5,.58-5,.65,3.94.91,3.94.47-2.08.73-2.09.5-1.33.77-1.34.53-.1.79-.11.54,2.62.8,2.62.53-1.26.79-1.26.49,1.8.76,1.8.61-4.71.87-4.7.41,4.68.67,4.69.67-4.2.93-4.19.55-.06.81,0,.2,6.68.46,6.69.69-3.27,1-3.26.44,1.17.7,1.19.49.28.75.3.4,1.35.66,1.37,1-5.86,1.28-5.83.28,2.82.54,2.84.14,3.71.4,3.74,1.14-5.81,1.4-5.78.53.12.79.15.39,1.22.65,1.25.53,0,.79,0,.43.75.69.79,0,3.82.22,3.86,1.06-3.57,1.32-3.53.18,2.11.44,2.16.92-2.35,1.18-2.3.47.33.73.38.8-1.43,1.06-1.38,0,2.59.3,2.64,1-2.12,1.21-2.07.41.67.66.72.93-1.74,1.18-1.68-.91,6.49-.65,6.54.83-1.38,1.09-1.32.2,1.31.46,1.37,1.09-2.3,1.34-2.24-.22,2.92,0,3,1.58-4,1.84-4-.29,3.05,0,3.12,1.54-3.61,1.79-3.54.56,0,.81.07-.08,2.15.17,2.23,1.11-1.87,1.36-1.79-.47,3.27-.22,3.35.44.32.69.4,1.46-2.82,1.71-2.74.44.38.68.46.68-.31.92-.23.64-.18.88-.1-.61,3.26-.37,3.35,1.44-2.37,1.68-2.28.95-1,1.19-.9-1.6,5.62-1.36,5.71.83-.73,1.07-.63,1.83-3.15,2.07-3.05-.88,3.52-.64,3.62,2.07-3.58,2.31-3.48.82-.54,1.06-.43.39.46.62.57S151,15,151.28,15.1s1.63-2.35,1.87-2.24-.71,2.75-.48,2.86,2.88-4.85,3.11-4.73-.32,1.91-.09,2,.33.53.56.64,1.17-1.14,1.4-1-.08,1.33.15,1.45-1.07,3.2-.84,3.32,1.68-2.08,1.91-2,0,1.14.21,1.26,1.85-2.28,2.08-2.16-.09,1.26.14,1.39,1.41-1.4,1.63-1.27-2.09,4.67-1.86,4.8,1.21-1.06,1.44-.92,1.21-1,1.43-.88.37.41.59.55.28.55.5.68,1.41-1.23,1.63-1.09-2.12,4.28-1.9,4.42,2-2.16,2.23-2,1.13-.76,1.35-.62-.21,1.26,0,1.41,0,.93.21,1.08.79-.22,1-.07-1.52,3-1.31,3.2,1.61-1.39,1.83-1.23.95-.44,1.16-.29-.48,1.52-.27,1.68,1.68-1.39,1.89-1.23-1.83,3.26-1.63,3.42,1.84-1.54,2-1.38.27.49.47.65-.66,1.65-.46,1.82,4.3-4.49,4.5-4.33-.47,1.44-.27,1.6S175.75,28.85,176,29s2.43-2.06,2.62-1.9.49.26.69.43S177,30.93,177.2,31.1s1.49-.91,1.69-.74-.35,1.16-.15,1.33,2.77-2.27,3-2.09-1.85,2.78-1.66,3,.85-.16,1,0,.21.53.39.71.07.67.26.85.28.45.46.63,1.62-.9,1.81-.71.39.35.57.53,1.3-.52,1.48-.34-2.55,3.18-2.37,3.37,2.91-2.06,3.09-1.87-1.94,2.53-1.76,2.72,2.68-1.77,2.86-1.58-1.66,2.21-1.49,2.41.7.06.87.26,0,.69.16.88,1.39-.52,1.56-.32,2.45-1.4,2.61-1.2-.11.81,0,1S189,42.8,189.15,43s0,.65.17.85,3.44-2.11,3.61-1.91-.56,1.12-.4,1.33-.63,1.15-.47,1.36,2.4-1.19,2.56-1-3,3-2.89,3.17.06.59.21.8,1.32-.34,1.48-.13,1.14-.19,1.29,0-1.9,2-1.75,2.2,4.76-2.71,4.91-2.5-.61,1.07-.46,1.29-.31.85-.16,1.06-2.28,2.15-2.13,2.36,1.76-.54,1.9-.33-1.28,1.44-1.14,1.66,3.74-1.77,3.88-1.55-.23.77-.1,1-3.18,2.58-3,2.8.74.13.88.36,4.31-2,4.45-1.75-4.29,3.12-4.16,3.34,4.21-1.83,4.34-1.61-3.2,2.42-3.08,2.65,4.18-1.74,4.3-1.51-.54.91-.42,1.14-.56.9-.43,1.13.65.24.77.47,0,.62.08.85,1.12,0,1.24.25-.64.91-.52,1.14.67.26.79.49,1,.11,1.1.35-.32.74-.21,1-.74.93-.63,1.16-1.39,1.2-1.29,1.44-.6.82-.49,1.06,2.87-.7,3-.46-1.49,1.21-1.39,1.45,4.22-1.21,4.32-1S205,69.75,205.11,70s3.78-1,3.88-.72-.65.82-.56,1.07.22.48.32.72.5.38.59.62-1.61,1.16-1.52,1.4-1.07.93-1,1.18,3.65-.73,3.73-.49-2.69,1.48-2.61,1.73-.42.68-.34.92,4.06-.77,4.14-.52-2.91,1.47-2.83,1.72-.24.61-.16.86,4.27-.74,4.34-.49-3.07,1.46-3,1.71,3.14-.35,3.21-.1-5.39,2-5.33,2.29.31.43.38.68,4.49-.64,4.56-.39-3.29,1.38-3.23,1.63,5-.68,5-.42-6,1.95-5.92,2.21,6.62-1,6.68-.73-3.82,1.39-3.76,1.64,1.31.26,1.36.51,1.89.16,1.94.41-5.46,1.62-5.41,1.87,2.52,0,2.57.29,2.59.06,2.63.32-3.55,1.15-3.51,1.41-1.51.76-1.47,1,5.55-.36,5.59-.1.79.42.83.68-3.53,1-3.5,1.3-.71.62-.68.88,2.61.18,2.64.44-1.81.74-1.78,1-2,.75-2,1,2.12.29,2.14.55.32.48.35.74-1.31.63-1.28.89,5.56.06,5.58.32-6.77,1-6.76,1.31,4.9.17,4.92.43-2.21.66-2.19.92.57.49.59.75,1.92.44,1.93.7.05.53.06.79-4.52.67-4.51.93,2.43.44,2.43.71-1.25.53-1.25.79-1.84.53-1.84.79,6.34.5,6.34.76-.19.38-.19.76-1.65.39-1.65.77-1.56.38-1.56.76-2.63.38-2.63.76,2.1.39,2.1.77,3.67.38,3.67.76-5.17.39-5.17.77.88.38.88.77,1.75.38,1.75.76,2.27.39,2.27.77-3,.38-3,.77,2.25.38,2.25.76-2.23.39-2.23.77,3.51.39,3.51.78-1.56,1.51-1.83,1.78-1.41,1.47-1.79,1.47-.39.33-.77.33-.39-3.48-.77-3.48-.39-.28-.77-.28-.39,3.51-.77,3.51-.39,1-.77,1-.39-2.48-.78-2.48-.38-3.07-.77-3.07-.39-.66-.78-.66-.38,1.63-.77,1.63-.39,2-.78,2-.38-3.46-.77-3.46-.39,4.95-.77,4.95-.39-.46-.78-.46-.38-4.78-.77-4.78-.39.75-.77.75-.39,2.82-.78,2.82-.38,1.17-.77,1.17-.39-4-.78-4-.38,1.22-.77,1.22-.39,3-.78,3S198,120,197.59,120s-.39-2.1-.78-2.1-.39,1-.77,1-.39-.78-.78-.78-.39,1-.77,1-.39,0-.78,0-.39-1-.78-1-.39,1.6-.77,1.6-.39,1.42-.78,1.42-.39-2-.78-2-.38.94-.77.94-.38-1.3-.77-1.3-.39,1.29-.78,1.29-.38-2-.77-2-.39,5.75-.78,5.75S186.34,118,186,118s-.39,4.14-.78,4.14-.39-3.35-.78-3.35-.39,1.74-.78,1.74h-.77c-.39,0-.39,3.21-.78,3.21s-.39-4.46-.78-4.46-.39,1.52-.78,1.52-.39.72-.78.72-.39-1.18-.78-1.18-.39,2.92-.78,2.92-.39-1.37-.79-1.37,1.17-2.93.89-3.2.26,1.32.26.94-2.5-.38-2.5-.76,3.22-.38,3.22-.76-5.85-.39-5.85-.77,1.74-.38,1.74-.76-1.07-.39-1.07-.77,4.75-.38,4.75-.76-5.35-.39-5.35-.77,3.61-.39,3.61-.77,1.2-.38,1.2-.76-1.79-.39-1.79-.77-3.34-.38-3.34-.77.31-.38.31-.77-.24-.38-.24-.77.06-.39.06-.77,2.27-.51,2.27-.78,4.25-.61,4.24-.87-3.83-.43-3.84-.69.44-.54.43-.8.44-.55.42-.81-3.46-.29-3.47-.55,5.6-.94,5.58-1.21-4-.18-4.07-.44,1.92-.71,1.89-1-.1-.52-.13-.78,1.44-.72,1.41-1-1.43-.35-1.46-.61.49-.61.45-.87.54-.64.5-.89-4.73.27-4.78,0,.23-.54.18-.8,2-.91,2-1.17.48-.63.42-.89-2.14-.06-2.2-.31,1.57-.89,1.51-1.14-3.4.31-3.46.05,6.76-2.27,6.7-2.52-3.92.49-4,.24-1.56-.1-1.63-.35-1.05-.21-1.12-.46,3-1.45,2.92-1.7-1.59,0-1.67-.29-2.27.22-2.35,0-.4-.38-.49-.62,1.25-1,1.16-1.22-1.66.09-1.75-.15.4-.68.31-.92-.46-.35-.56-.59.39-.69.29-.93.44-.73.34-1,2.16-1.52,2.06-1.76-.39-.4-.5-.64-1.11-.06-1.23-.29,2.39-1.75,2.27-2-2,.38-2.09.14-1.73.3-1.85.07-.58-.27-.7-.5-.69-.19-.82-.42,3.29-2.43,3.16-2.66.73-1.06.6-1.28-6,2.92-6.14,2.7,5.42-3.88,5.28-4.1-3.39,1.47-3.53,1.24-.83-.07-1-.29.69-1.07.55-1.29-2.85,1.3-3,1.09,2.71-2.48,2.56-2.69-2.79,1.33-2.94,1.12,1.92-2,1.77-2.22-.21-.5-.37-.71.15-.78,0-1,.31-.92.14-1.13-2.31,1.17-2.48,1,.33-.93.16-1.13-2.86,1.72-3,1.52,3.41-3.58,3.24-3.78-2.47,1.46-2.65,1.26,2.5-2.93,2.32-3.12-2,1.09-2.17.89,1.92-2.54,1.74-2.73-4.27,3.34-4.45,3.16-1.37.64-1.55.46,4.46-5.21,4.27-5.39-1.38.62-1.57.44-4,3.39-4.14,3.21-.15-.56-.34-.73l-.56-.52c-.19-.17-.55-.11-.75-.28s1.44-2.43,1.24-2.6-1.2.62-1.4.46.47-1.37.27-1.54-.05-.77-.26-.93-2.66,2.54-2.86,2.38,3.79-5.77,3.59-5.92-1.79,1.45-2,1.29-.46-.29-.67-.44.31-1.37.1-1.52-1.73,1.53-2,1.38-1.78,1.7-2,1.55-.76.24-1,.09.82-2.17.6-2.31-.17-.71-.39-.85,1.28-3.11,1.06-3.24-1.29,1.06-1.51.93-.07-1-.3-1.11-.45-.31-.68-.44-.46-.32-.69-.44-.7.12-.93,0S140.27,49.15,140,49s-1.57,1.95-1.8,1.83,1.31-3.79,1.07-3.9-1.42,1.73-1.66,1.62,0-1.24-.23-1.35-.91.75-1.15.64-1,1-1.23.89.8-3.21.56-3.32-1.2,1.54-1.44,1.44-.35-.53-.59-.62-1.12,1.48-1.37,1.38-.56.1-.81,0,.53-3,.28-3.08-1.47,2.69-1.72,2.61-.58.17-.83.09.38-2.84.13-2.91-.84,1-1.09.88-1.09,1.93-1.34,1.86,1.29-6.52,1-6.59-.87,1.08-1.12,1-1.8,4.95-2.06,4.89-.23-1.15-.48-1.21-.06-2-.31-2.06-.87,1.58-1.13,1.52-.75,1.18-1,1.13.56-5.59.3-5.64-.55,0-.81-.09-1.36,4.92-1.62,4.88-.47-.2-.73-.24-.54.3-.8.26-.56.53-.82.49,0-4.37-.23-4.4-.57.28-.83.25-.37-1.75-.63-1.78-.83,3.5-1.09,3.48-.35-2.33-.61-2.35l-.8,0c-.26,0-.48-1.08-.74-1.1s-.53-.58-.79-.58-.65,3.9-.91,3.9-.48-2.35-.74-2.35-.54,4.3-.8,4.3-.54-4.4-.8-4.4-.45,3.62-.71,3.63-.56-1.9-.83-1.89-.68-3.51-.94-3.5-.24,5.45-.5,5.46-.64-2-.9-2-.36,2-.62,2-.52-.21-.78-.19-.93-4.18-1.19-4.15,0,5.16-.22,5.19-1.12-4.91-1.38-4.88-.19,2.53-.45,2.57-.51.13-.76.17-.46.41-.72.45-.55-.19-.81-.15-.41.63-.67.68-.31,1-.56,1.09-1.53-4.8-1.79-4.75,0,2.58-.25,2.63-.61-.3-.86-.24-.91-1.44-1.17-1.38-.85-1.09-1.11-1,1.11,6.17.86,6.24-.39.43-.64.5-1.56-3.48-1.81-3.41.57,3.6.32,3.68-.7-.55-1-.47-.94-1.23-1.19-1.14-.39.43-.64.52-.38.45-.63.54S85.29,45.09,85,45.18s.31,2.23.06,2.32-1.36-2-1.6-1.91-.3.66-.54.76-1.31-1.69-1.55-1.58,1,3.6.77,3.7S79.94,44.84,79.7,45s.84,3.06.61,3.18-.16.86-.39,1-2-2.77-2.21-2.65,2.06,5.15,1.82,5.27-3.46-5.44-3.69-5.32.07,1.29-.16,1.42,1.13,3.11.9,3.24-2.71-3.66-2.94-3.53-.35.52-.57.65,2.33,4.88,2.1,5-.12.74-.34.88-2-2.14-2.18-2,.92,2.36.71,2.5S71.21,52.31,71,52.46s-.76-.16-1,0-.49.24-.7.4.51,1.61.3,1.76-.5.21-.71.36-1-.44-1.2-.28.89,2,.68,2.16-.69-.05-.89.11,0,.83-.19,1-1.17-.6-1.37-.43.4,1.26.21,1.43.83,1.71.63,1.88-4.46-4.23-4.66-4,3.71,4.84,3.52,5S61.43,58,61.24,58.21s3.41,4.32,3.22,4.5-.14.56-.32.74-1-.25-1.13-.07-3.54-2.73-3.73-2.55,1.35,2,1.17,2.21-1.58-.75-1.75-.56-1-.19-1.19,0,2.31,2.77,2.14,3,.87,1.42.7,1.62-1.45-.59-1.62-.39.92,1.41.75,1.61-.87-.08-1,.13.39.93.23,1.13-5.2-3.36-5.36-3.15.79,1.27.63,1.48-.44.35-.59.56,2.81,2.66,2.66,2.88.36.85.21,1.06-2.46-1.08-2.61-.86-3.15-1.46-3.3-1.24,4.83,3.76,4.68,4-3.55-1.66-3.69-1.43,1.51,1.54,1.38,1.77-1.9-.54-2-.32,3.06,2.39,2.93,2.61-.21.44-.34.67-5.35-2.38-5.48-2.16,5,3.3,4.89,3.53-1.61-.29-1.73-.06-4-1.47-4.14-1.23,2.14,1.66,2,1.89,0,.56-.14.8-.43.37-.54.61.58.83.47,1.06-3.91-1.14-4-.9-.9.23-1,.47,2,1.43,1.94,1.68,1.76,1.26,1.66,1.5,1.44,1.09,1.35,1.34-1.45,0-1.54.24,1.79,1.16,1.7,1.41-3.1-.54-3.18-.29.3.64.22.89-3.32-.5-3.4-.25,3.89,1.74,3.81,2-2.75-.27-2.83,0-1.8.06-1.87.31,4.71,1.8,4.65,2.06-.46.39-.52.65-5-.68-5.11-.43.46.68.4.93.2.61.15.86,2.16,1,2.11,1.25,1.65.84,1.6,1.1-1.87.18-1.91.43,3.12,1,3.07,1.3-5.59-.36-5.63-.1-.46.49-.49.75,3.29,1,3.26,1.24-4.3,0-4.33.28,4.23,1,4.2,1.26-.44.48-.47.74,2.88.75,2.86,1-.17.47-.19.73-3.9.26-3.91.53,1.55.6,1.54.86-4.49.36-4.49.62.44.57.43.84,5.61.62,5.61.88-3.26.49-3.26.76,1.75.39,1.75.78-1.37.39-1.37.78-.54.39-.54.78-2,.39-2,.78,5.64.39,5.64.78-6.32.39-6.32.78.64.39.64.78,3.87.39,3.87.78-3.64.39-3.64.78.49.39.49.78.41.39.41.78,2.48.39,2.48.79-2.45.39-2.45.78.74.39.74.78-2.49.39-2.49.79,1.15.39,1.15.78.34.39.34.78-.19.39-.19.79,2.18.39,2.18.78.7.39.7.78-2.46.39-2.46.78,1.23.39,1.23.78.34.39.34.79.32.39.32.78-1,.39-1,.78-1.3.39-1.3.78,2.78.39,2.78.78-3.69.39-3.69.78,2,.39,2,.78-.95.39-.95.78,2.48.39,2.48.78,2.12.39,2.12.78-.85.39-.85.78-3.91.39-3.91.78.82.39.82.78,2.73.39,2.73.78-3.37.39-3.37.78,2.51.39,2.51.78-2.41.39-2.41.78.8.39.8.78,3.47.39,3.47.78-5.19.39-5.19.78,4.89.39,4.89.78-4.77.39-4.77.78.87.39.87.78.84.39.84.78,1.57.4,1.57.79-.74.39-.74.78,2.64.39,2.64.78-2.11.39-2.11.78-4,.39-4,.78,3.63.4,3.63.79.77.39.77.78,1.84.39,1.84.78-1.08.4-1.08.79-.94.39-.94.78v.79c0,.39,1.22.39,1.22.78s-5.35.39-5.35.78,6.81.4,6.81.79-6.58.39-6.58.78,1.2.39,1.2.78.69.4.69.79,1.18.39,1.18.78-3.43.39-3.43.78,4.29.39,4.29.78,1.6.39,1.6.79-3.44.39-3.44.78-1,.39-1,.78-1.46.39-1.46.78,5.18.39,5.18.78-4,.39-4,.78,1.36.4,1.36.79,2.82.39,2.82.78.17.39.17.78-5.5.39-5.5.78,4.35.39,4.35.79,2.76.39,2.76.78-1.68.39-1.68.78.18.39.18.79-5.27.39-5.27.78,6.7.39,6.7.79-2.13.39-2.13.78.72.39.72.79-3.29.39-3.29.78-2.31.39-2.31.78.75.4.75.79,3.31.39,3.31.78-3.74.39-3.74.78,3.81.4,3.81.79-.21.39-.21.78-3.65.39-3.65.78.89.4.89.79,5,.39,5,.78-3.77.39-3.77.78-2.44.4-2.44.79,6.6.39,6.6.78-.4.39-.4.78-.1.4-.1.79.15.39.15.78-2.3.4-2.3.79-.59.39-.59.78.3.4.3.79-3.47.39-3.47.78,3.26.4,3.26.79,2.48.39,2.48.78-2.36.39-2.36.79-.91.39-.91.78,4.46.39,4.46.78-6.68.4-6.68.79,3.1.39,3.1.78-.08.39-.08.79-2.28.39-2.28.78,5.76.39,5.76.79-3.59.39-3.59.78-2.25.39-2.25.78.52.4.52.79,2.38.39,2.38.78,2,.39,2,.78-2,.39-2,.78,2.38.39,2.38.79-5.23.39-5.23.78,5.71.39,5.71.78-.7.39-.7.78.63.39.63.78-6.8.39-6.8.78,2.15.39,2.15.78,1.23.39,1.23.79,1.29.39,1.29.78.68.39.68.79-3.48.39-3.48.78,4.45.4,4.45.79-5.12.39-5.12.78.28.4.28.79-1.53.39-1.53.78,1.27.4,1.27.79,3.52.39,3.52.78-.4.39-.4.79-3,.39-3,.78-.26.39-.26.78.37.4.37.79,1.66.4,1.66.79-2.09.39-2.09.79.79.39.79.78-.6.4-.6.79,2.51.39,2.51.78-2.62.4-2.62.79-.38.39-.38.79,1.26.39,1.26.79-.19.39-.19.78,1.65.4,1.65.79,3.3.39,3.3.79-.37.39-.37.78-2.5.4-2.5.79,2.66.39,2.66.79-1.31.39-1.31.78.39.4.39.79-1.87.39-1.87.79S40,233,40,233.43s-.38.4-.38.79-1.39.39-1.39.79,3.71.39,3.71.79,2.17.39,2.17.79-.53.39-.53.79-4.67.39-4.67.79,2.62.39,2.62.78,3.54.4,3.54.79-6.14.4-6.14.79-.83.4-.83.8,6.34.39,6.34.79.58.4.58.8-6.57.56-6.57.82,1.19.53,1.2.8-1.58.6-1.57.86,3.51.4,3.52.66-3,.7-3,1,4.75.23,4.77.49-3.72.81-3.69,1.07,2.09.36,2.11.62,3.13.2,3.16.46-2,.73-2,1,1.83.28,1.86.54S39,252.52,39,252.78s2.34.21,2.38.47.88.4.92.66-1.41.78-1.36,1,5.18-.42,5.23-.17-1.57.81-1.52,1.07-3.63,1.28-3.57,1.54.82.37.88.63,3-.16,3.07.1,1,.27,1,.52S43.91,259.72,44,260s-3,1.36-2.94,1.61,1.55.14,1.62.39,3.19-.39,3.27-.14-.49.68-.41.93-.07.57,0,.81.61.35.69.59.39.41.47.66-2.51,1.45-2.42,1.7-1.73,1.23-1.63,1.48,6.07-1.78,6.17-1.54S47,267.73,47.13,268s-2.52,1.61-2.42,1.86,3.6-1,3.71-.72.25.44.36.68-3.3,2.07-3.19,2.31-.05.64.06.87,0,.6.16.84.23.51.35.74,3.87-1.38,4-1.15-.44.81-.32,1-1.84,1.61-1.71,1.84,4.63-2,4.76-1.76-.72,1-.59,1.21.08.53.21.76-1.69,1.63-1.56,1.85,1.7-.44,1.84-.22,1.12-.11,1.26.11,1.24-.22,1.38,0-3.46,2.93-3.31,3.15,1.53-.41,1.68-.19-1.41,1.64-1.26,1.85.4.38.56.59,2.7-1.33,2.85-1.12-2.8,2.78-2.64,3,3.32-1.9,3.48-1.69-3.18,3.21-3,3.41,4.82-3.23,5-3-.85,1.36-.68,1.56,2-1.05,2.17-.85.24.44.41.64-.29.92-.11,1.11.6.12.78.31-4.08,4.54-3.9,4.73,2.17-1.31,2.35-1.12.9-.14,1.08.05-.1.86.08,1-1,1.85-.85,2,1.63-.91,1.82-.73,2.73-2.17,2.92-2-1.08,1.95-.89,2.12-1.23,2.2-1,2.37,2-1.51,2.22-1.34-1.33,2.4-1.13,2.57,4-4,4.21-3.84-2.09,3.39-1.89,3.55.67,0,.87.18,1.32-.85,1.53-.69-1,2.15-.76,2.31,1.35-.94,1.56-.78,1.77-1.59,2-1.44-1,2.25-.74,2.4,2.28-2.44,2.5-2.29-1.26,2.79-1,2.93-1.68,3.56-1.45,3.71,1.23-.92,1.45-.78,3-3.88,3.24-3.74-1.71,3.83-1.49,4,2.46-3.16,2.69-3-.64,2.14-.42,2.26,1.59-1.8,1.81-1.67-1.87,4.56-1.64,4.69,3-4.5,3.18-4.38-.54,2.15-.31,2.27.65-.16.89-.05-.65,2.53-.41,2.64-.1,1.5.14,1.61.78-.4,1-.3,1-1,1.26-.88.9-.77,1.14-.67,1.41-2.1,1.65-2-.77,3.3-.53,3.39-.3,2.3-.06,2.39.24,1,.49,1.05.61,0,.86,0,1.41-2.43,1.66-2.35,0,1.7.25,1.78,1.44-2.77,1.69-2.69,1-1.66,1.28-1.59-1.31,6.32-1,6.39.94-1.3,1.19-1.23.78-.83,1-.76,1.44-3.55,1.69-3.49.42.36.67.42.25,1.13.51,1.19-.26,3.64,0,3.69l.79.17c.25.05.37,1,.63,1s1.61-5.95,1.87-5.91-.4,5.45-.14,5.49,1.18-4.16,1.44-4.12-.15,4.67.11,4.71,1.2-5,1.46-4.94-.1,5.09.16,5.12.53.29.79.32.78-2.44,1-2.41.37,1.95.63,2,.68-1.82.94-1.8.42,1.89.68,1.91.51.66.78.67.61-1.53.87-1.52.61-3.27.87-3.27.46,4.17.72,4.18.55-3.93.81-3.93.53,2.6.79,2.59.49-2.2.75-2.2.68,4.88.94,4.87.53-.62.8-.63.39-2.9.65-2.91.55.45.82.43.6.89.86.87.53-.15.79-.17.29-2.43.55-2.46.56.42.82.39.77,1.9,1,1.86.41-1,.67-1,0-3.37.28-3.41.38-.74.63-.78.47-.12.73-.16,1.42,4.94,1.68,4.89,0-2.54.3-2.59.52,0,.77-.08.42-.5.67-.56,1.58,4.46,1.84,4.4-.06-2.54.2-2.6-.1-2.5.15-2.56.26-1,.51-1.05.7.64,1,.56,2,4.83,2.23,4.76-1.52-6.76-1.27-6.83,2.06,4.75,2.31,4.67.87.87,1.11.79-1.28-5.33-1-5.42,2.4,5.15,2.65,5.06.42-.47.66-.57-1.55-5.49-1.31-5.59,1.53,2.47,1.77,2.37.93.86,1.17.76.7.24.94.14,1.27,1.52,1.51,1.41-1.74-5.11-1.5-5.22.43-.26.67-.37,1.94,2.82,2.18,2.71-.89-3-.66-3.09.63.13.87,0,2.16,3,2.39,2.83-.35-1.78-.12-1.9.89.5,1.12.37-2.14-4.77-1.91-4.9.89.55,1.11.42,3.35,4.52,3.57,4.39-.11-1.24.11-1.38.89.39,1.11.25-1.59-3.41-1.37-3.56,1,.64,1.27.49-.11-1.08.1-1.23.34-.41.55-.56,2.86,3.06,3.07,2.9.26-.59.47-.74-.69-1.82-.48-2-.81-1.9-.61-2.06,2.31,2.05,2.51,1.89.68,0,.88-.2.08-.76.29-.92.7,0,.9-.19,1.08.4,1.28.23-.24-1.1,0-1.28-1.66-2.6-1.47-2.78.35-.38.54-.56-1.11-1.89-.92-2.07.49-.2.67-.39,4.28,3.54,4.46,3.35-1.11-1.85-.93-2-2.59-3.18-2.41-3.37,4.21,3.22,4.39,3-3.44-3.83-3.26-4,4,2.89,4.19,2.69-2.91-3.22-2.74-3.42,1.59.69,1.76.49,1.23.35,1.39.15-2.18-2.43-2-2.63,4.75,3.1,4.92,2.89-4.07-3.8-3.91-4-.07-.66.09-.87,2.62,1.31,2.78,1.1,2.81,1.36,3,1.15-1.2-1.51-1.06-1.72.1-.58.24-.8.94,0,1.08-.23-2.12-2-2-2.23.58-.23.72-.45-1.41-1.46-1.27-1.68,2.21.75,2.34.52,1.34.19,1.47,0,2.71.92,2.84.69-3.74-2.68-3.61-2.91-1.4-1.32-1.27-1.55,2,.51,2.16.28.15-.49.27-.73,3.63,1.22,3.74,1-3.95-2.49-3.83-2.72,4.43,1.49,4.54,1.25.74-.27.84-.51-2-1.48-1.92-1.72,1-.15,1.13-.39-2.4-1.55-2.3-1.8,3.63.88,3.73.64-.63-.83-.54-1.07-.41-.73-.32-1,.92-.24,1-.49-2.45-1.4-2.36-1.65,3.69.67,3.78.42-5.55-2.31-5.47-2.56,4.4.81,4.47.56-.84-.8-.77-1.05-3.22-1.42-3.15-1.68.4-.39.47-.64,1.72-.07,1.79-.33.4-.42.46-.67-1.69-.9-1.63-1.16,3.63.28,3.69,0,.15-.5.21-.76-2.91-1.08-2.86-1.34,2.82,0,2.87-.26,1.3-.32,1.34-.58-2-.85-1.94-1.11,3.36-.05,3.39-.31-3.17-1-3.13-1.22,2.95-.18,3-.44.23-.53.26-.79-2.47-.78-2.45-1,1.13-.43,1.15-.69,2.22-.39,2.24-.65-4-.79-4-1,2.65-.39,2.66-.66-5-.71-5-1,2-.45,2-.71-1.08-.52-1.08-.78.29-.5.29-.76,1.55-.38,1.55-.75-2-.37-2-.75.78-.37.78-.75,3.32-.37,3.32-.75-1.25-.37-1.25-.75-2.54-2.59-2.27-2.85,2.43,2.73,2.82,2.73.38-1.55.77-1.55.38,1.73.77,1.73.39,1.17.77,1.17.39-4.34.77-4.34.39.06.77.06.39.89.78.89.38,1.83.77,1.83.39,1.41.78,1.41.38-3.14.77-3.14.39,1.11.78,1.11.38-3,.77-3,.39,4.11.77,4.11.39-2.66.78-2.66.38,4.85.77,4.85.39-1.48.77-1.48.39-5.12.78-5.12.38,5.66.77,5.66.39-2.38.78-2.38.38,2.1.77,2.1.39-2.6.78-2.6.39-2.46.77-2.46.39,1.32.78,1.32.39,4,.77,4,.39-2.76.78-2.76.39,1.14.77,1.14.39,2.2.78,2.2.39-2.11.78-2.11H199c.39,0,.39-.35.78-.35s.39-1,.78-1,.38-1.49.77-1.49.38,3,.77,3,.39-1.64.78-1.64.38-.78.77-.78.39,3.84.78,3.84.39-3.14.77-3.14.39,1.63.78,1.63.39,1.12.78,1.12.39.59.78.59.38-2.22.77-2.22.39-2.31.78-2.31.39,4.29.78,4.29.39-3.88.78-3.88.39,3.05.78,3.05.39-.81.78-.81.39.57.78.57.39,2.06.79,2.06,2.67-5.61,3-5.34a12.2,12.2,0,0,1,1.2,3c0,.38-3.09.38-3.09.75s-2.82.38-2.82.75.3.38.3.75,4.65.38,4.65.75.65.38.65.76-.08.54-.08.8-3.62.49-3.63.75-2.47.47-2.48.73,5.24.65,5.23.91-.86.5-.87.77-3.67.37-3.69.63.83.54.81.8,3.59.72,3.57,1-3.95.28-4,.54,3.65.78,3.63,1-1.47.42-1.49.68-2.75.28-2.77.54,3.26.82,3.24,1.08-3.57.16-3.6.42.63.58.6.84-.13.5-.17.75,4.78,1.12,4.74,1.38-1.08.4-1.12.66-1.55.32-1.59.58-2.92.1-2.95.35,4.46,1.21,4.42,1.47-.47.47-.51.73,1,.71.93,1-1.6.27-1.64.52.77.69.73.95-5.39-.5-5.44-.25,4.21,1.36,4.16,1.62.6.67.55.92-2.26.06-2.32.31-1.61.17-1.66.43,3.58,1.36,3.52,1.61-1.66.15-1.72.41-2.11,0-2.17.26-1.61.12-1.68.37,2,1.05,1.95,1.3-2.67-.2-2.74.05,1.26.87,1.19,1.12,3.38,1.51,3.31,1.76-4.86-.89-4.94-.64,1.45,1,1.37,1.21-1,.21-1.11.46.11.56,0,.81-.63.32-.71.57,1.69,1.1,1.6,1.35-1.46,0-1.55.28-.57.33-.66.57.68.78.59,1-.1.5-.19.75.17.61.08.85,4.35,2.25,4.26,2.49-.6.35-.7.59-2.72-.52-2.82-.28-3.18-.75-3.28-.51,3.91,2.2,3.81,2.44,1.42,1.2,1.31,1.44-4.54-1.42-4.65-1.18-1.43-.08-1.54.15,3.54,2.18,3.43,2.42.65.89.54,1.13-4.6-1.61-4.72-1.37,3.94,2.48,3.83,2.71-2.48-.63-2.6-.4,1.95,1.57,1.84,1.81-.06.57-.18.8-4.43-1.71-4.55-1.48,2.37,1.83,2.25,2.06.2.71.07.94,0,.59-.15.81-1.75-.37-1.88-.14.23.72.1.95-2.78-1-2.92-.8.92,1.13.78,1.35,3,2.39,2.83,2.61-1.53-.31-1.67-.09-.35.41-.48.63-.93,0-1.07.26-1.07-.07-1.21.15-2-.67-2.1-.45,2.14,2,2,2.24,2.62,2.4,2.48,2.62-3.53-1.76-3.68-1.55-1.09-.13-1.24.09,1.06,1.37.9,1.58-3.05-1.55-3.21-1.34,2.54,2.47,2.38,2.68-2.87-1.49-3-1.28,2.79,2.73,2.63,2.94-1-.08-1.13.12-3-1.63-3.12-1.43,1.92,2.15,1.76,2.36.58,1.13.42,1.33-3-1.73-3.14-1.53,2.47,2.68,2.3,2.88-2.74-1.61-2.91-1.41-1.35-.48-1.51-.28,4.3,4.38,4.13,4.58-.5.27-.68.46-3.54-2.43-3.71-2.23,2.84,3.25,2.67,3.45-3.38-2.37-3.56-2.18,2.1,2.65,1.92,2.84.13.85,0,1-4.15-3.22-4.33-3,.21.9,0,1.09-1.12-.4-1.31-.22,1.14,1.84,1,2-1.79-1.09-2-.91.71,1.45.52,1.63,1.54,2.34,1.35,2.52-1.79-1.12-2-.94-1.12-.45-1.31-.28-1-.32-1.17-.14,2.88,3.95,2.69,4.12-3.27-2.88-3.47-2.7,2,3,1.79,3.2.81,1.75.61,1.92-.31.47-.51.64-2.3-1.9-2.5-1.73-2.55-2.27-2.75-2.1,2.27,3.58,2.07,3.75-3-2.93-3.23-2.77.32,1.22.12,1.38,2.35,3.85,2.14,4-1-.47-1.24-.31-1.75-1.43-2-1.27,1,2.2.79,2.36-.21.62-.42.78.12,1.09-.09,1.24-4.32-5.16-4.53-5,2.44,4.37,2.23,4.52-.8-.23-1-.08.36,1.47.15,1.62-2.16-2.27-2.38-2.13.87,2.27.65,2.41-.23.61-.45.76-2-2.15-2.21-2-1.71-1.77-1.93-1.63,3,5.84,2.77,6-3.29-4.41-3.52-4.28,2.57,5.32,2.34,5.45-2.43-3.09-2.66-3-1.63-1.82-1.86-1.69,2.22,5,2,5.09-2.23-2.91-2.46-2.79-.92-.61-1.14-.49,0,1.07-.24,1.19-.59,0-.82.1,1.59,4.21,1.36,4.33-3.37-5.46-3.6-5.34,1,3.06.73,3.18-.1,1-.34,1.08-2.06-3.09-2.3-3-.55,0-.78.11.12,1.46-.12,1.57-1-.93-1.21-.82.58,2.53.34,2.64-.4.37-.64.47-1.54-2.3-1.78-2.2,1,3.77.78,3.87-1.46-2.19-1.7-2.09.82,3.41.57,3.51-.36.54-.6.63-2-3.74-2.24-3.64,1,4.09.74,4.18-1.17-1.65-1.42-1.56.56,3.11.31,3.2-.5.23-.74.32-2.49-5.66-2.74-5.57-.1,1.27-.35,1.35-.7-.51-1-.43-.38.47-.62.55-.12,1.36-.37,1.43.71,4.2.47,4.27-2.15-5.43-2.4-5.36,1,5.55.79,5.62-1.37-3-1.62-2.89-1.32-2.95-1.58-2.88.93,5.59.68,5.65-1.92-5.44-2.17-5.38,0,2.26-.22,2.32-.35.76-.6.82-1-2.13-1.27-2.07.36,4,.11,4-1.24-3.3-1.49-3.24-.42.49-.67.54.44,4.91.18,5-1.25-3.75-1.51-3.7-.61-.52-.87-.47.31,4.81,0,4.86l-.79.12c-.26.05-1.52-6.16-1.78-6.12s-.47.19-.73.23,0,3.17-.31,3.21-.38,1.12-.64,1.16-.62-.73-.88-.7-.77-2-1-2-.54-.26-.8-.23-.56-.47-.82-.45-.1,4.23-.36,4.25-.46.79-.72.82-.59-.63-.85-.61-.85-4.22-1.11-4.2-.49.11-.75.13-.24,4.57-.5,4.59-.67-2.65-.93-2.64-.59-1.56-.85-1.55-.51-.15-.77-.14-.48.91-.74.92-.41,4.82-.67,4.82-.55-.29-.81-.28-.58-5.82-.85-5.82S109.36,346.47,109.1,346.47Z"/></g></g></svg>